<svg xmlns="http://www.w3.org/2000/svg" width="100%" height="100%" viewBox="0 0 22 22" fill="none" preserveAspectRatio="xMidYMid meet" aria-hidden="true" role="img">
<path d="M18.0713 6.34171C18.0713 6.12474 17.8954 5.94885 17.6785 5.94885H16.4438C16.2268 5.94885 16.0509 6.12474 16.0509 6.34171V7.96926H14.4234C14.2064 7.96926 14.0305 8.14515 14.0305 8.36212V9.98967H12.403C12.186 9.98967 12.0101 10.1656 12.0101 10.3825V12.0101H10.3825C10.1656 12.0101 9.98969 12.186 9.98969 12.4029V14.0305H7.96928V12.4029C7.96928 12.186 7.7934 12.0101 7.57643 12.0101L5.94887 12.0101V10.3825C5.94887 10.1656 5.77299 9.98967 5.55602 9.98967H4.32132C4.10436 9.98967 3.92847 10.1656 3.92847 10.3825V11.6172C3.92847 11.8342 4.10435 12.0101 4.32132 12.0101H5.94887V13.6376C5.94887 13.8546 6.12476 14.0305 6.34173 14.0305H7.96928V15.658C7.96928 15.875 8.14517 16.0509 8.36214 16.0509H9.59683C9.8138 16.0509 9.98969 15.875 9.98969 15.658V14.0305H11.6172C11.8342 14.0305 12.0101 13.8546 12.0101 13.6376V12.0101L13.6376 12.0101C13.8546 12.0101 14.0305 11.8342 14.0305 11.6172V9.98967H15.6581C15.875 9.98967 16.0509 9.81378 16.0509 9.59681L16.0509 7.96926H17.6785C17.8954 7.96926 18.0713 7.79337 18.0713 7.5764V6.34171Z" fill="currentColor"></path>
</svg>